<?xml version="1.0" encoding="UTF-8"?><svg id="Capa_1" xmlns="http://www.w3.org/2000/svg" viewBox="0 0 263.07 139.91"><defs><style>.cls-1{fill:#fff;}</style></defs><polygon class="cls-1" points="81.06 0 81.06 33.47 53.13 91.11 43.89 91.11 0 .02 15.97 .02 48.51 67.63 81.05 .02 81.06 0"/><rect class="cls-1" x="84.77" y=".02" width="14.92" height="91.09"/><polygon class="cls-1" points="186 .02 141.85 91.11 132.98 91.11 103.41 33.48 103.42 .02 103.42 .02 137.24 67.63 169.77 .02 186 .02"/><path class="cls-1" d="M250.39,12.77C241.93,4.27,231.27,.02,218.41,.02s-23.42,4.24-31.81,12.72c-8.4,8.48-12.6,19.24-12.6,32.32s4.18,23.76,12.56,32.24c8.37,8.48,18.98,12.71,31.84,12.71s23.58-4.23,32.01-12.71c8.43-8.48,12.65-19.23,12.65-32.24s-4.23-23.78-12.68-32.29Zm-8.02,57.32c-6.32,6.6-14.32,9.89-23.95,9.89s-17.63-3.3-23.96-9.89c-6.33-6.58-9.49-14.93-9.49-25.03s3.15-18.49,9.49-25.09c6.33-6.61,14.32-9.91,23.96-9.91s17.69,3.3,24.01,9.88c6.29,6.58,9.44,14.96,9.44,25.13s-3.17,18.45-9.5,25.03Z"/><path class="cls-1" d="M136.55,99.2l-14.95,30.23-15.19-30.23h-6.71l20.3,40.42h3.26l20.25-40.42h-6.96Z"/><path class="cls-1" d="M151.46,99.1v40.52h6.43v-40.52h-6.43Z"/><path class="cls-1" d="M202.76,99.2l-14.95,30.23-15.19-30.23h-6.71l20.3,40.42h3.26l20.25-40.42h-6.96Z"/><path class="cls-1" d="M250.61,104.59c-4.44-3.85-10.17-5.77-17.17-5.77s-12.63,1.93-17.08,5.8c-4.44,3.86-6.66,8.77-6.66,14.71s2.23,10.82,6.68,14.73c4.46,3.91,10.14,5.86,17.05,5.86s12.69-1.94,17.14-5.84c4.46-3.89,6.68-8.81,6.68-14.76s-2.22-10.88-6.66-14.73Zm-4.48,25.44c-3.28,2.8-7.51,4.21-12.69,4.21s-9.36-1.4-12.62-4.21c-3.26-2.8-4.89-6.37-4.89-10.71s1.63-7.9,4.89-10.71c3.26-2.8,7.46-4.21,12.62-4.21s9.37,1.41,12.66,4.23c3.29,2.82,4.93,6.38,4.93,10.69s-1.64,7.9-4.91,10.71Z"/></svg>